<svg width="128" height="128" viewBox="0 0 128 128" fill="none" xmlns="http://www.w3.org/2000/svg">
<g clip-path="url(#clip0_420_165)">
<rect width="128" height="128" rx="16" fill="#2A3541"/>
<rect x="10" y="40.3149" width="109" height="46.3702" rx="12" fill="white"/>
<path d="M30.7363 75.0639C28.583 75.0639 26.7243 74.7125 25.1603 74.0099C23.619 73.2845 22.4176 72.2419 21.5563 70.8819C20.7176 69.4992 20.253 67.8219 20.1623 65.8499C20.1396 64.8752 20.1283 63.8439 20.1283 62.7559C20.1283 61.6452 20.1396 60.5912 20.1623 59.5939C20.253 57.6672 20.729 56.0352 21.5903 54.6979C22.4516 53.3605 23.6643 52.3405 25.2283 51.6379C26.7923 50.9352 28.6283 50.5839 30.7363 50.5839C32.4363 50.5839 33.9436 50.7992 35.2583 51.2299C36.573 51.6379 37.6723 52.1932 38.5563 52.8959C39.463 53.5985 40.143 54.3692 40.5963 55.2079C41.0723 56.0465 41.3216 56.8739 41.3443 57.6899C41.367 57.8939 41.299 58.0639 41.1403 58.1999C41.0043 58.3359 40.8343 58.4039 40.6303 58.4039H35.6663C35.417 58.4039 35.2243 58.3699 35.0883 58.3019C34.975 58.2112 34.873 58.0865 34.7823 57.9279C34.6236 57.5879 34.3856 57.2365 34.0683 56.8739C33.7736 56.4885 33.3543 56.1599 32.8103 55.8879C32.289 55.6159 31.5976 55.4799 30.7363 55.4799C29.4443 55.4799 28.4243 55.8199 27.6763 56.4999C26.951 57.1799 26.5543 58.2679 26.4863 59.7639C26.4183 61.7132 26.4183 63.6852 26.4863 65.6799C26.5543 67.2665 26.9736 68.4112 27.7443 69.1139C28.515 69.8165 29.535 70.1679 30.8043 70.1679C31.6656 70.1679 32.425 70.0205 33.0823 69.7259C33.7623 69.4312 34.295 68.9779 34.6803 68.3659C35.0656 67.7312 35.2583 66.9265 35.2583 65.9519V65.3059H32.0623C31.813 65.3059 31.5976 65.2265 31.4163 65.0679C31.2576 64.8865 31.1783 64.6712 31.1783 64.4219V61.9059C31.1783 61.6565 31.2576 61.4525 31.4163 61.2939C31.5976 61.1125 31.813 61.0219 32.0623 61.0219H40.6303C40.8796 61.0219 41.0836 61.1125 41.2423 61.2939C41.401 61.4525 41.4803 61.6565 41.4803 61.9059V65.7819C41.4803 67.7312 41.0383 69.3972 40.1543 70.7799C39.2703 72.1625 38.0123 73.2279 36.3803 73.9759C34.771 74.7012 32.8896 75.0639 30.7363 75.0639ZM55.207 75.0639C53.0537 75.0639 51.195 74.7125 49.631 74.0099C48.0897 73.2845 46.8884 72.2419 46.027 70.8819C45.1884 69.4992 44.7237 67.8219 44.633 65.8499C44.6104 64.8752 44.599 63.8439 44.599 62.7559C44.599 61.6452 44.6104 60.5912 44.633 59.5939C44.7237 57.6672 45.1997 56.0352 46.061 54.6979C46.9224 53.3605 48.135 52.3405 49.699 51.6379C51.263 50.9352 53.099 50.5839 55.207 50.5839C56.907 50.5839 58.4144 50.7992 59.729 51.2299C61.0437 51.6379 62.143 52.1932 63.027 52.8959C63.9337 53.5985 64.6137 54.3692 65.067 55.2079C65.543 56.0465 65.7924 56.8739 65.815 57.6899C65.8377 57.8939 65.7697 58.0639 65.611 58.1999C65.475 58.3359 65.305 58.4039 65.101 58.4039H60.137C59.8877 58.4039 59.695 58.3699 59.559 58.3019C59.4457 58.2112 59.3437 58.0865 59.253 57.9279C59.0944 57.5879 58.8564 57.2365 58.539 56.8739C58.2444 56.4885 57.825 56.1599 57.281 55.8879C56.7597 55.6159 56.0684 55.4799 55.207 55.4799C53.915 55.4799 52.895 55.8199 52.147 56.4999C51.4217 57.1799 51.025 58.2679 50.957 59.7639C50.889 61.7132 50.889 63.6852 50.957 65.6799C51.025 67.2665 51.4444 68.4112 52.215 69.1139C52.9857 69.8165 54.0057 70.1679 55.275 70.1679C56.1364 70.1679 56.8957 70.0205 57.553 69.7259C58.233 69.4312 58.7657 68.9779 59.151 68.3659C59.5364 67.7312 59.729 66.9265 59.729 65.9519V65.3059H56.533C56.2837 65.3059 56.0684 65.2265 55.887 65.0679C55.7284 64.8865 55.649 64.6712 55.649 64.4219V61.9059C55.649 61.6565 55.7284 61.4525 55.887 61.2939C56.0684 61.1125 56.2837 61.0219 56.533 61.0219H65.101C65.3504 61.0219 65.5544 61.1125 65.713 61.2939C65.8717 61.4525 65.951 61.6565 65.951 61.9059V65.7819C65.951 67.7312 65.509 69.3972 64.625 70.7799C63.741 72.1625 62.483 73.2279 60.851 73.9759C59.2417 74.7012 57.3604 75.0639 55.207 75.0639ZM75.8049 74.7239C75.5556 74.7239 75.3516 74.6445 75.1929 74.4859C75.0342 74.3272 74.9549 74.1232 74.9549 73.8739V56.2619H68.9029C68.6536 56.2619 68.4496 56.1825 68.2909 56.0239C68.1322 55.8425 68.0529 55.6385 68.0529 55.4119V51.7739C68.0529 51.5245 68.1322 51.3205 68.2909 51.1619C68.4496 51.0032 68.6536 50.9239 68.9029 50.9239H87.1949C87.4442 50.9239 87.6482 51.0032 87.8069 51.1619C87.9656 51.3205 88.0449 51.5245 88.0449 51.7739V55.4119C88.0449 55.6385 87.9656 55.8425 87.8069 56.0239C87.6482 56.1825 87.4442 56.2619 87.1949 56.2619H81.1429V73.8739C81.1429 74.1232 81.0636 74.3272 80.9049 74.4859C80.7462 74.6445 80.5422 74.7239 80.2929 74.7239H75.8049ZM91.9849 74.7239C91.7356 74.7239 91.5316 74.6445 91.3729 74.4859C91.2143 74.3272 91.1349 74.1232 91.1349 73.8739V51.7739C91.1349 51.5245 91.2143 51.3205 91.3729 51.1619C91.5316 51.0032 91.7356 50.9239 91.9849 50.9239H107.863C108.112 50.9239 108.316 51.0032 108.475 51.1619C108.634 51.3205 108.713 51.5245 108.713 51.7739V54.9699C108.713 55.2192 108.634 55.4232 108.475 55.5819C108.316 55.7405 108.112 55.8199 107.863 55.8199H97.0169V60.4099H107.115C107.364 60.4099 107.568 60.5005 107.727 60.6819C107.886 60.8405 107.965 61.0445 107.965 61.2939V64.2519C107.965 64.4785 107.886 64.6825 107.727 64.8639C107.568 65.0225 107.364 65.1019 107.115 65.1019H97.0169V69.8279H108.135C108.384 69.8279 108.588 69.9072 108.747 70.0659C108.906 70.2245 108.985 70.4285 108.985 70.6779V73.8739C108.985 74.1232 108.906 74.3272 108.747 74.4859C108.588 74.6445 108.384 74.7239 108.135 74.7239H91.9849Z" fill="#2A3541"/>
</g>
<defs>
<clipPath id="clip0_420_165">
<rect width="128" height="128" fill="white"/>
</clipPath>
</defs>
</svg>
